<svg width="14" height="15" viewBox="0 0 14 15" fill="none" xmlns="http://www.w3.org/2000/svg">
<path id="Union" fill-rule="evenodd" clip-rule="evenodd" d="M8.82357 5.25217C8.82357 7.47035 7.11171 9.26854 5.00002 9.26854C2.88834 9.26854 1.17648 7.47035 1.17648 5.25217C1.17648 3.03399 2.88834 1.2358 5.00002 1.2358C7.11171 1.2358 8.82357 3.03399 8.82357 5.25217ZM8.09582 9.37681C7.24437 10.0829 6.16905 10.5043 5.00002 10.5043C2.23859 10.5043 0 8.15287 0 5.25217C0 2.35148 2.23859 0 5.00002 0C7.76146 0 10 2.35148 10 5.25217C10 6.47958 9.59923 7.60864 8.92758 8.50283L13.3584 13.1571L12.5265 14.031L8.09582 9.37681Z" fill="#9AA0A6"/>
</svg>
