<svg xmlns="http://www.w3.org/2000/svg" xml:space="preserve" width="224.99277mm" height="160.66261mm" viewBox="0 0 224.99277 160.66261"><path d="M22.021 155.07 12.531 77.4l48.72-4.986 3.407 10.762 21.054-2.224 1.463 4.176 37.57-4.359.767-13.508 26.603-2.556.488 3.541 47.437-5.161 2.747 21.566 15.265-1.617 19.473 49.525-122.377 91.189z" style="fill:#193bc0;fill-opacity:1;stroke:none;stroke-width:2.54311;stroke-linecap:round" transform="translate(-12.532 -63.084)"/><path d="m195.211 69.371-41.154 4.327 1.925 15.94 9.486-.963 6.112 50.84 18.343-1.962-6.117-50.817 13.347-1.45zm-47.28 1.446L131.223 72.6l3.844 31.34-1.584.172-15.785-16.738-17.508 1.955 7.076 56.901 16.713-1.777-3.531-28.776 1.6-.159 18.023 22.364 15.91-1.62zm-91.496 7.695-37.634 3.874 8.203 67.225 16.736-1.762-3.225-27.505 16.24-1.623-1.62-12.694-16.224 1.606-1.265-10.918 20.725-2.268zm25.402 8.538-15.581 1.624-11.751 63.025 14.481-1.601 2.26-16.415 12.523-1.44 3.392 11.112 13.998-1.474zm132.52 2.11-18.314 1.914.305 40.844 11.248-1.119-.457-8.53 8.01-.972 3.077 8.36 11.565-1.282zm-6.266 11.878 3.545 10.953-4.696.65-.465-11.455zM76.54 108.6l3.39 11.108-6.78.804 1.78-11.76z" style="fill:#fff;fill-opacity:1;stroke:none;stroke-width:2.54311;stroke-linecap:round" transform="translate(-12.532 -63.084)"/></svg>